<svg width="163" height="27" viewBox="0 0 163 27" fill="none" xmlns="http://www.w3.org/2000/svg">
<path d="M11.3941 8.816C11.1861 8.48 10.8901 8.224 10.5061 8.048C10.1221 7.856 9.65812 7.76 9.11412 7.76C8.09012 7.76 7.29812 8.096 6.73812 8.768C6.17812 9.424 5.89812 10.328 5.89812 11.48C5.89812 12.808 6.21012 13.8 6.83412 14.456C7.45812 15.112 8.41812 15.44 9.71412 15.44C10.9461 15.44 11.9381 14.944 12.6901 13.952H8.44212V10.184H17.1061V15.512C16.3701 16.776 15.3541 17.864 14.0581 18.776C12.7621 19.672 11.1221 20.12 9.13812 20.12C7.37812 20.12 5.84212 19.76 4.53012 19.04C3.23412 18.304 2.23412 17.28 1.53012 15.968C0.842122 14.656 0.498122 13.16 0.498122 11.48C0.498122 9.8 0.842122 8.304 1.53012 6.992C2.23412 5.68 3.23412 4.664 4.53012 3.944C5.82612 3.208 7.34612 2.84 9.09012 2.84C11.3141 2.84 13.1221 3.376 14.5141 4.448C15.9221 5.52 16.7541 6.976 17.0101 8.816H11.3941ZM29.969 20L26.777 13.904H26.753V20H21.425V3.008H29.345C30.721 3.008 31.897 3.256 32.873 3.752C33.849 4.232 34.577 4.896 35.057 5.744C35.553 6.576 35.801 7.52 35.801 8.576C35.801 9.712 35.481 10.72 34.841 11.6C34.217 12.48 33.313 13.112 32.129 13.496L35.825 20H29.969ZM26.753 10.352H28.865C29.377 10.352 29.761 10.24 30.017 10.016C30.273 9.776 30.401 9.408 30.401 8.912C30.401 8.464 30.265 8.112 29.993 7.856C29.737 7.6 29.361 7.472 28.865 7.472H26.753V10.352ZM45.2311 7.256V9.344H50.5111V13.352H45.2311V15.752H51.2311V20H39.9031V3.008H51.2311V7.256H45.2311ZM60.9671 7.256V9.344H66.2471V13.352H60.9671V15.752H66.9671V20H55.6391V3.008H66.9671V7.256H60.9671ZM87.671 20H82.343L76.703 11.456V20H71.375V3.008H76.703L82.343 11.696V3.008H87.671V20ZM159.398 20.192C158.47 20.192 157.726 19.944 157.166 19.448C156.606 18.952 156.326 18.328 156.326 17.576C156.326 16.808 156.606 16.176 157.166 15.68C157.726 15.168 158.47 14.912 159.398 14.912C160.31 14.912 161.046 15.168 161.606 15.68C162.166 16.176 162.446 16.808 162.446 17.576C162.446 18.328 162.166 18.952 161.606 19.448C161.046 19.944 160.31 20.192 159.398 20.192Z" fill="#AFC13C"/>
<path d="M98.5021 20.168C97.2221 20.168 96.0861 19.96 95.0941 19.544C94.1181 19.128 93.3421 18.552 92.7661 17.816C92.1901 17.08 91.8621 16.248 91.7821 15.32H96.8941C96.9581 15.72 97.1261 16.016 97.3981 16.208C97.6861 16.4 98.0461 16.496 98.4781 16.496C98.7501 16.496 98.9661 16.44 99.1261 16.328C99.2861 16.2 99.3661 16.048 99.3661 15.872C99.3661 15.568 99.1981 15.352 98.8621 15.224C98.5261 15.096 97.9581 14.952 97.1581 14.792C96.1821 14.6 95.3741 14.392 94.7341 14.168C94.1101 13.944 93.5581 13.56 93.0781 13.016C92.6141 12.472 92.3821 11.72 92.3821 10.76C92.3821 9.928 92.5981 9.176 93.0301 8.504C93.4781 7.816 94.1341 7.28 94.9981 6.896C95.8621 6.496 96.9101 6.296 98.1421 6.296C99.9661 6.296 101.39 6.744 102.414 7.64C103.454 8.536 104.078 9.704 104.286 11.144H99.5581C99.4781 10.776 99.3101 10.496 99.0541 10.304C98.7981 10.096 98.4541 9.992 98.0221 9.992C97.7501 9.992 97.5421 10.048 97.3981 10.16C97.2541 10.256 97.1821 10.408 97.1821 10.616C97.1821 10.888 97.3501 11.096 97.6861 11.24C98.0221 11.368 98.5581 11.504 99.2941 11.648C100.27 11.84 101.094 12.056 101.766 12.296C102.438 12.536 103.022 12.952 103.518 13.544C104.014 14.12 104.262 14.92 104.262 15.944C104.262 16.744 104.03 17.464 103.566 18.104C103.102 18.744 102.43 19.248 101.55 19.616C100.686 19.984 99.6701 20.168 98.5021 20.168ZM111.465 5.384C110.537 5.384 109.793 5.136 109.233 4.64C108.673 4.144 108.393 3.52 108.393 2.768C108.393 2 108.673 1.368 109.233 0.871999C109.793 0.359999 110.537 0.103999 111.465 0.103999C112.377 0.103999 113.113 0.359999 113.673 0.871999C114.233 1.368 114.513 2 114.513 2.768C114.513 3.52 114.233 4.144 113.673 4.64C113.113 5.136 112.377 5.384 111.465 5.384ZM114.105 6.464V20H108.777V6.464H114.105ZM123.783 6.296C124.663 6.296 125.423 6.48 126.063 6.848C126.703 7.2 127.191 7.688 127.527 8.312V6.464H132.831V19.76C132.831 21.024 132.599 22.176 132.135 23.216C131.671 24.256 130.919 25.088 129.879 25.712C128.855 26.336 127.535 26.648 125.919 26.648C123.743 26.648 122.015 26.136 120.735 25.112C119.471 24.104 118.751 22.728 118.575 20.984H123.807C123.951 21.688 124.527 22.04 125.535 22.04C126.159 22.04 126.647 21.88 126.999 21.56C127.351 21.24 127.527 20.64 127.527 19.76V18.152C127.191 18.776 126.703 19.272 126.063 19.64C125.423 19.992 124.663 20.168 123.783 20.168C122.727 20.168 121.775 19.896 120.927 19.352C120.079 18.792 119.407 17.992 118.911 16.952C118.431 15.896 118.191 14.656 118.191 13.232C118.191 11.808 118.431 10.576 118.911 9.536C119.407 8.48 120.079 7.68 120.927 7.136C121.775 6.576 122.727 6.296 123.783 6.296ZM127.527 13.232C127.527 12.512 127.343 11.952 126.975 11.552C126.607 11.152 126.135 10.952 125.559 10.952C124.983 10.952 124.511 11.152 124.143 11.552C123.775 11.952 123.591 12.512 123.591 13.232C123.591 13.952 123.775 14.512 124.143 14.912C124.511 15.312 124.983 15.512 125.559 15.512C126.135 15.512 126.607 15.312 126.975 14.912C127.343 14.512 127.527 13.952 127.527 13.232ZM147.103 6.368C148.655 6.368 149.863 6.888 150.727 7.928C151.607 8.968 152.047 10.376 152.047 12.152V20H146.743V12.824C146.743 12.184 146.567 11.68 146.215 11.312C145.879 10.928 145.423 10.736 144.847 10.736C144.255 10.736 143.791 10.928 143.455 11.312C143.119 11.68 142.951 12.184 142.951 12.824V20H137.623V6.464H142.951V8.528C143.367 7.888 143.919 7.368 144.607 6.968C145.311 6.568 146.143 6.368 147.103 6.368Z" fill="white"/>
</svg>
