<svg width="28" height="40" viewBox="0 0 28 40" fill="none" xmlns="http://www.w3.org/2000/svg">
<path d="M25.9167 16.1112H-19.9167C-21.0667 16.1112 -22 15.3646 -22 14.4446C-22 13.5246 -21.0667 12.7779 -19.9167 12.7779H25.9167C27.0667 12.7779 28 13.5246 28 14.4446C28 15.3646 27.0667 16.1112 25.9167 16.1112Z" fill="#AFC13C"/>
<path d="M25.9167 3.33333H-19.9167C-21.0667 3.33333 -22 2.58667 -22 1.66667C-22 0.746664 -21.0667 0 -19.9167 0H25.9167C27.0667 0 28 0.746664 28 1.66667C28 2.58667 27.0667 3.33333 25.9167 3.33333Z" fill="#AFC13C"/>
<path d="M25.9167 28.8888H-19.9167C-21.0667 28.8888 -22 28.1421 -22 27.2221C-22 26.3021 -21.0667 25.5554 -19.9167 25.5554H25.9167C27.0667 25.5554 28 26.3021 28 27.2221C28 28.1421 27.0667 28.8888 25.9167 28.8888Z" fill="#AFC13C"/>
</svg>
