<svg width="93" height="51" viewBox="0 0 93 51" xmlns="http://www.w3.org/2000/svg"><title>delivery</title><path d="M88.086 11.572C85.6 8.877 82.063 7.388 78.13 7.388H68.66V2.262A2.267 2.267 0 0 0 66.402 0H21.308a2.267 2.267 0 0 0-2.26 2.262v7.877H10.26A2.267 2.267 0 0 0 8 12.4a2.267 2.267 0 0 0 2.26 2.262h11.067a2.267 2.267 0 0 0 2.257-2.26V4.52h40.58v35.45h-21.27c-.093 0-.187 0-.28.02-1.13-2.79-3.86-4.77-7.04-4.77-3.2 0-5.93 1.998-7.04 4.806a2.167 2.167 0 0 0-.49-.057h-4.46v-7.897a2.267 2.267 0 0 0-2.258-2.26H10.26A2.267 2.267 0 0 0 8 32.075a2.267 2.267 0 0 0 2.26 2.262h8.788v7.878a2.267 2.267 0 0 0 2.26 2.26h6.868a7.574 7.574 0 0 0 7.398 5.92c3.613 0 6.625-2.526 7.397-5.92H70.037c.772 3.375 3.783 5.92 7.397 5.92 3.614 0 6.625-2.526 7.397-5.92h5.044a2.267 2.267 0 0 0 2.26-2.26v-18.79c0-4.88-1.413-8.99-4.048-11.854zM35.44 44.892a3.07 3.07 0 0 1-3.067-3.073 3.07 3.07 0 0 1 3.068-3.073 3.07 3.07 0 0 1 3.07 3.072 3.07 3.07 0 0 1-3.07 3.07zm41.86 0a3.07 3.07 0 0 1-3.068-3.073 3.07 3.07 0 0 1 3.068-3.073 3.07 3.07 0 0 1 3.068 3.072c-.02 1.695-1.393 3.07-3.068 3.07zm10.183-5.92H84.32c-1.13-2.77-3.858-4.748-7.02-4.748-3.162 0-5.89 1.96-7.02 4.75h-1.732V10.91h9.468c5.928 0 9.467 4.317 9.467 11.535v16.528zM47.807 22.86l.02-.02c.036-.056.093-.094.13-.15.02-.038.038-.057.057-.094.02-.038.038-.057.075-.095l.056-.112c.018-.037.037-.056.056-.094l.057-.113c.017-.037.036-.056.036-.093.02-.038.02-.076.038-.113.02-.038.02-.076.038-.095.018-.038.018-.076.018-.114 0-.037.02-.075.02-.113 0-.037.018-.075.018-.132 0-.036.038-.394.02-.545 0-.038 0-.057-.02-.094 0-.037-.038-.244-.038-.244s-.018-.076-.018-.114c-.02-.037-.02-.075-.038-.094a.92.92 0 0 1-.075-.207c-.02-.037-.04-.074-.058-.112-.02-.038-.038-.057-.056-.094l-.057-.113a.33.33 0 0 0-.076-.094c-.02-.037-.038-.056-.057-.094-.037-.056-.094-.094-.13-.15l-.02-.02-7.058-.66H2.26A2.267 2.267 0 0 0 0 21.145a2.267 2.267 0 0 0 2.26 2.262h38.47l7.077-.547z" fill="#FFF" fill-rule="evenodd"/></svg>